<?xml version="1.0" standalone="no"?>
<!DOCTYPE svg PUBLIC "-//W3C//DTD SVG 20010904//EN"
 "http://www.w3.org/TR/2001/REC-SVG-20010904/DTD/svg10.dtd">
<svg version="1.0" xmlns="http://www.w3.org/2000/svg"
 width="1920.000000pt" height="1920.000000pt" viewBox="0 0 1920.000000 1920.000000"
 preserveAspectRatio="xMidYMid meet">
<metadata>
Created by potrace 1.14, written by Peter Selinger 2001-2017
</metadata>
<g transform="translate(0.000000,1920.000000) scale(0.100000,-0.100000)"
fill="#000000" stroke="none">
<path d="M9606 15589 c3 -5 0 -9 -7 -9 -7 0 -21 -8 -32 -17 -15 -13 -19 -14
-13 -3 4 9 2 8 -7 -2 -8 -10 -21 -18 -30 -18 -9 0 -21 -8 -26 -17 -6 -10 -11
-14 -11 -10 0 5 -7 1 -16 -8 -9 -9 -29 -19 -45 -22 -16 -3 -26 -9 -23 -14 3
-5 -4 -9 -16 -9 -14 0 -19 -4 -14 -12 5 -8 2 -9 -9 -5 -10 3 -17 2 -17 -3 0
-6 -7 -10 -15 -10 -8 0 -24 -9 -35 -20 -12 -12 -25 -18 -30 -15 -5 3 -12 -1
-17 -8 -4 -7 -15 -17 -23 -20 -8 -4 -22 -11 -30 -16 -8 -5 -32 -17 -52 -26
-21 -9 -38 -20 -38 -25 0 -6 -7 -10 -15 -10 -8 0 -15 -4 -15 -8 0 -5 -27 -23
-60 -40 -33 -18 -60 -30 -60 -26 0 4 -11 -5 -25 -20 -13 -14 -33 -26 -43 -26
-11 0 -22 -7 -25 -14 -3 -8 -22 -18 -42 -22 -20 -3 -41 -14 -47 -24 -7 -10
-18 -15 -26 -12 -11 4 -13 1 -7 -8 6 -10 4 -12 -8 -7 -10 3 -17 2 -17 -3 0 -6
-6 -10 -14 -10 -8 0 -16 -7 -20 -15 -3 -8 -12 -15 -21 -15 -8 0 -15 -5 -15
-11 0 -6 -7 -8 -16 -5 -8 3 -12 2 -9 -4 3 -6 -5 -10 -19 -10 -16 0 -25 -5 -23
-12 1 -7 -6 -12 -15 -12 -10 1 -15 -2 -12 -7 3 -5 -1 -9 -9 -9 -8 0 -20 -7
-27 -15 -7 -8 -16 -13 -20 -10 -5 3 -21 -6 -36 -20 -14 -13 -30 -22 -34 -20
-5 3 -10 0 -12 -5 -2 -6 -13 -12 -25 -13 -12 0 -20 -3 -18 -6 8 -8 -35 -32
-45 -26 -6 4 -9 1 -8 -7 2 -7 -7 -14 -19 -16 -13 -2 -23 -8 -23 -13 0 -6 -4
-8 -8 -5 -5 3 -21 -6 -36 -19 -16 -14 -34 -21 -44 -18 -9 4 -14 2 -10 -2 10
-11 -29 -38 -42 -30 -6 3 -10 1 -10 -5 0 -6 -4 -8 -10 -5 -5 3 -10 0 -10 -8 0
-16 -54 -39 -66 -29 -4 4 -4 1 0 -5 5 -9 1 -13 -11 -13 -10 0 -33 -14 -52 -31
-19 -16 -40 -28 -47 -25 -6 2 -22 -7 -35 -20 -13 -14 -29 -22 -35 -20 -7 3
-15 -2 -18 -10 -3 -8 -12 -14 -21 -14 -8 0 -24 -9 -35 -20 -12 -12 -26 -18
-32 -14 -7 4 -8 3 -4 -4 4 -7 1 -13 -8 -13 -9 -1 -21 -2 -27 -3 -6 0 -16 -9
-23 -18 -7 -10 -16 -15 -19 -11 -4 3 -7 1 -7 -5 0 -6 -7 -9 -17 -5 -10 4 -14
2 -10 -4 5 -8 -26 -25 -36 -20 -1 1 -13 -9 -27 -21 -14 -11 -29 -22 -35 -22
-5 -1 -21 -11 -35 -23 -21 -19 -23 -20 -10 -2 8 11 0 7 -17 -9 -19 -17 -36
-25 -44 -21 -8 5 -10 4 -5 -3 4 -7 1 -12 -7 -12 -8 0 -22 -9 -31 -19 -10 -11
-31 -23 -47 -26 -16 -4 -29 -11 -29 -17 0 -6 -3 -8 -7 -5 -3 4 -12 -1 -20 -11
-10 -11 -12 -12 -8 -2 4 9 0 7 -9 -4 -8 -10 -19 -15 -25 -12 -5 4 -14 -2 -20
-11 -5 -10 -12 -17 -15 -15 -14 5 -27 1 -21 -7 5 -9 -32 -27 -47 -23 -5 1 -8
-2 -8 -8 0 -5 -10 -14 -21 -21 -17 -9 -20 -8 -14 3 5 7 -6 0 -23 -16 -18 -16
-35 -27 -38 -23 -4 4 -14 -2 -22 -14 -8 -11 -20 -18 -28 -15 -8 3 -14 1 -14
-5 0 -6 -4 -7 -10 -4 -5 3 -10 3 -10 -2 0 -4 -18 -17 -40 -27 -22 -10 -37 -23
-33 -29 3 -6 1 -7 -5 -3 -6 3 -23 -5 -37 -18 -15 -14 -33 -22 -40 -20 -7 3
-23 -4 -34 -15 -12 -12 -21 -18 -21 -14 0 4 -6 -1 -13 -12 -9 -11 -19 -15 -27
-10 -8 5 -11 4 -6 -3 8 -13 -23 -31 -43 -24 -9 3 -11 0 -6 -8 5 -8 3 -11 -6
-8 -7 2 -22 -5 -32 -16 -10 -12 -16 -16 -13 -9 4 7 -4 6 -24 -3 -16 -9 -30
-18 -30 -20 0 -3 5 -2 10 1 6 3 10 4 10 1 0 -3 -10 -10 -21 -17 -15 -7 -19 -8
-15 0 5 7 1 9 -8 5 -9 -3 -16 -9 -16 -13 0 -4 -15 -13 -34 -19 -19 -7 -37 -19
-40 -27 -3 -8 -12 -15 -21 -15 -8 0 -15 -5 -15 -11 0 -6 -7 -9 -15 -5 -9 3
-19 -3 -25 -15 -6 -11 -16 -16 -22 -13 -6 4 -16 1 -22 -7 -6 -8 -18 -14 -26
-14 -8 0 -14 -6 -13 -12 3 -12 -2 -14 -34 -17 -7 -1 -20 -10 -28 -21 -9 -11
-14 -14 -10 -8 4 9 1 11 -9 7 -9 -3 -13 -10 -10 -15 3 -5 -1 -6 -9 -3 -9 3
-21 -4 -29 -15 -8 -12 -18 -18 -21 -14 -4 3 -7 1 -7 -5 0 -7 -3 -11 -7 -10
-15 5 -73 -25 -67 -34 3 -5 0 -8 -7 -7 -20 3 -50 -12 -44 -21 3 -4 -2 -11 -11
-14 -8 -3 -12 -2 -9 4 3 6 -1 7 -9 4 -9 -3 -14 -10 -11 -14 3 -4 -8 -10 -23
-13 -15 -3 -36 -13 -47 -22 -11 -9 -13 -13 -5 -9 12 5 12 4 3 -6 -6 -7 -24
-14 -39 -16 -16 -1 -33 -10 -40 -18 -6 -9 -19 -16 -28 -16 -9 0 -28 -11 -42
-25 -14 -14 -29 -25 -34 -25 -6 0 -10 -4 -10 -10 0 -5 -7 -7 -17 -3 -11 4 -24
-3 -39 -22 -12 -15 -31 -29 -41 -30 -28 -3 -53 -16 -48 -25 3 -4 -2 -11 -11
-14 -10 -4 -13 -2 -9 7 4 6 0 4 -9 -7 -8 -10 -20 -15 -27 -10 -8 4 -10 3 -5
-4 7 -11 -6 -17 -27 -13 -5 1 -6 -3 -2 -9 6 -9 2 -11 -35 -14 -8 -1 -14 -7
-13 -14 2 -6 -3 -9 -10 -6 -7 2 -27 -9 -45 -26 -18 -16 -44 -33 -58 -36 -13
-3 -24 -10 -24 -15 0 -5 -7 -5 -17 -2 -10 4 -14 2 -10 -4 4 -6 -6 -13 -24 -17
-20 -4 -28 -10 -23 -17 5 -8 3 -9 -5 -5 -7 5 -20 1 -29 -7 -9 -7 -24 -17 -32
-21 -38 -18 -59 -33 -53 -40 4 -4 0 -4 -9 -1 -8 3 -18 0 -21 -7 -3 -8 -23 -20
-46 -28 -22 -7 -38 -18 -34 -23 4 -6 1 -7 -6 -2 -8 4 -24 -3 -41 -20 -15 -14
-34 -28 -41 -29 -32 -7 -90 -38 -95 -51 -3 -8 -12 -11 -21 -8 -11 4 -14 2 -9
-5 5 -8 -3 -14 -23 -18 -18 -4 -28 -11 -24 -17 4 -6 1 -7 -7 -2 -8 5 -20 -1
-32 -16 -11 -13 -17 -17 -13 -9 5 12 4 12 -7 -1 -7 -9 -18 -14 -23 -12 -6 2
-22 -8 -37 -21 -14 -14 -28 -22 -32 -19 -3 3 -8 -1 -12 -10 -3 -9 -12 -13 -20
-10 -8 3 -14 0 -14 -7 0 -6 -3 -9 -8 -6 -16 10 -44 -25 -49 -61 -2 -21 -6 -44
-9 -52 -2 -7 -7 -1009 -10 -2225 -3 -1216 -9 -2547 -13 -2958 -6 -523 -5 -757
2 -781 11 -35 14 -37 83 -72 21 -10 53 -31 69 -45 34 -30 1334 -767 1410 -800
27 -12 52 -26 56 -31 3 -6 12 -11 20 -13 23 -4 82 -37 109 -61 22 -19 2206
-1257 2317 -1313 24 -12 150 -82 282 -157 131 -74 244 -135 249 -135 6 0 12
-4 14 -8 3 -8 473 -276 548 -312 l45 -22 75 46 c41 25 90 52 108 60 21 10 31
20 26 27 -4 8 -3 9 5 5 15 -10 122 54 114 67 -3 6 -1 7 5 3 6 -3 34 7 62 24
28 16 55 30 60 30 6 0 10 5 10 10 0 6 5 10 12 10 16 0 138 72 133 80 -2 3 5 6
15 7 10 1 49 21 87 44 37 23 84 51 103 61 88 48 150 84 167 100 11 10 26 18
35 18 8 0 26 8 39 18 36 25 58 39 121 72 100 52 211 121 226 138 7 9 11 11 7
5 -3 -8 6 -6 24 5 17 9 31 21 31 25 0 5 5 5 10 2 6 -3 10 -1 10 4 0 6 3 10 8
9 12 -3 62 25 62 34 0 5 4 7 9 3 6 -3 14 3 20 12 6 10 11 14 11 10 0 -10 71
31 82 47 4 6 8 7 8 2 0 -5 8 -2 18 6 9 9 27 19 40 23 13 4 20 11 16 18 -4 7
-4 9 1 5 10 -9 65 19 65 33 0 6 4 8 9 5 4 -3 29 8 55 24 26 17 51 30 55 30 5
0 11 7 15 15 3 8 9 14 13 13 20 -5 54 15 49 28 -3 8 -2 12 3 9 12 -7 57 13 97
42 17 13 36 23 43 23 7 0 9 4 6 10 -3 5 0 7 9 4 8 -3 23 3 33 13 11 10 58 38
105 62 51 26 84 49 81 55 -3 6 -3 8 2 4 8 -8 118 49 123 64 2 4 8 6 13 2 5 -3
9 -1 9 4 0 6 18 17 40 26 22 9 40 20 40 26 0 5 6 10 13 10 7 0 29 11 50 25 20
14 37 23 37 20 0 -6 103 56 111 68 3 5 8 8 10 6 5 -2 71 33 114 61 17 11 42
25 57 31 16 6 25 15 22 20 -3 5 2 6 10 3 9 -3 16 -2 16 4 0 5 15 15 33 22 17
8 51 26 75 42 41 26 83 51 154 88 16 9 25 19 21 23 -4 5 0 5 9 2 8 -3 22 0 29
7 8 7 39 26 69 42 30 16 65 38 78 49 12 11 22 17 22 13 0 -4 14 1 30 11 17 9
30 21 30 26 0 4 4 6 9 2 5 -3 22 6 37 20 15 14 32 25 39 25 7 0 24 9 37 20 14
10 27 17 30 15 3 -3 13 4 23 15 10 11 24 20 31 20 18 0 85 41 107 65 10 11 16
14 12 8 -4 -9 -1 -11 9 -7 9 3 16 10 16 14 0 4 10 10 23 14 12 3 33 15 45 26
12 12 30 23 40 25 27 5 113 56 108 64 -3 4 5 8 17 8 12 1 27 10 34 19 7 10 22
18 33 19 11 1 28 8 37 16 10 8 35 23 55 33 21 10 35 23 32 28 -3 5 -2 8 3 7 4
-1 11 0 16 1 4 1 10 3 15 4 21 4 90 50 86 57 -3 5 3 6 12 2 13 -5 15 -3 9 7
-5 8 -4 11 2 7 16 -10 104 42 96 56 -3 7 -3 9 2 5 7 -7 102 37 115 53 3 4 15
9 28 13 12 4 19 12 16 18 -5 7 -2 8 6 3 7 -4 15 -4 19 1 3 5 36 25 73 44 36
19 64 39 61 44 -3 5 -1 6 4 3 6 -4 26 4 44 16 19 13 60 36 92 52 32 16 68 40
80 53 l22 23 -4 2987 c-2 2683 -4 2989 -18 3004 -9 10 -19 15 -23 13 -5 -3
-10 -1 -12 3 -3 9 -55 40 -176 104 -41 21 -83 48 -95 58 -11 11 -26 20 -33 20
-7 0 -19 6 -26 13 -7 7 -51 33 -98 56 -47 24 -169 93 -273 153 -103 60 -192
106 -199 102 -6 -4 -8 -3 -5 3 4 6 -6 13 -22 16 -16 3 -42 20 -59 37 -18 17
-42 33 -54 35 -13 3 -27 11 -33 18 -5 7 -25 19 -42 26 -18 7 -33 18 -33 23 0
5 -4 7 -9 4 -5 -3 -12 1 -15 10 -3 8 -10 12 -16 9 -6 -3 -23 3 -39 14 -16 12
-34 21 -40 21 -6 0 -15 9 -21 20 -6 11 -15 18 -20 15 -6 -3 -22 6 -37 20 -16
15 -66 46 -113 70 -47 23 -159 86 -250 139 -90 53 -170 96 -177 96 -7 0 -13 5
-13 11 0 5 -4 8 -9 5 -5 -4 -11 -1 -13 4 -3 10 -21 16 -50 19 -5 1 -8 8 -8 16
0 10 -7 15 -17 13 -11 -2 -17 2 -15 10 1 8 -2 11 -8 7 -11 -7 -53 19 -44 28 3
3 -12 11 -35 17 -23 6 -41 15 -41 21 0 6 -4 7 -10 4 -5 -3 -10 -2 -10 4 0 6
-19 21 -42 33 -23 13 -62 35 -87 50 -25 15 -53 30 -61 34 -8 5 -23 16 -33 25
-10 9 -69 43 -130 74 -62 32 -116 61 -122 65 -20 16 -205 120 -212 120 -5 0
-26 14 -47 30 -22 17 -47 30 -55 30 -21 1 -59 23 -61 35 -1 6 -8 9 -17 7 -8
-2 -12 1 -8 7 3 6 1 11 -5 11 -6 0 -28 12 -48 28 -20 15 -33 20 -28 12 4 -9 1
-8 -7 3 -8 9 -22 17 -31 17 -9 0 -16 3 -16 8 0 4 -14 13 -31 21 -17 7 -42 24
-56 37 -14 13 -29 21 -34 18 -5 -3 -9 0 -9 5 0 6 -7 11 -16 11 -8 0 -22 7 -31
15 -8 8 -18 13 -23 10 -4 -3 -10 1 -13 9 -3 8 -51 39 -106 70 -56 31 -147 82
-203 114 -57 31 -109 58 -115 60 -7 2 -13 8 -13 13 0 5 -4 9 -9 9 -6 0 -37 16
-70 35 -32 19 -67 35 -76 35 -9 0 -13 5 -10 10 4 6 -7 13 -25 16 -17 4 -35 15
-41 26 -5 10 -14 16 -19 13 -5 -3 -19 5 -31 19 -12 14 -26 23 -31 20 -5 -3
-16 2 -24 12 -9 11 -13 13 -9 4 4 -9 -2 -6 -12 5 -10 11 -25 21 -33 23 -8 2
-18 9 -22 15 -3 6 -17 12 -29 14 -13 2 -27 10 -31 18 -8 13 -19 20 -100 62
-18 9 -35 19 -38 23 -3 4 -34 23 -70 43 -36 19 -94 52 -130 72 -36 20 -83 45
-105 55 -41 20 -56 29 -110 65 -35 23 -99 60 -135 78 -14 6 -28 16 -31 21 -4
5 -13 5 -20 1 -8 -5 -11 -4 -6 0 4 5 -10 18 -31 30 -43 25 -85 38 -76 24z m65
-165 c8 -8 18 -14 22 -14 3 0 104 -57 224 -127 454 -263 542 -314 670 -387 73
-42 136 -76 141 -76 4 0 29 -13 54 -29 25 -16 70 -43 99 -59 153 -86 174 -99
174 -112 0 -8 -39 -38 -88 -66 -48 -28 -93 -56 -100 -62 -12 -9 -220 -131
-437 -255 -167 -95 -309 -176 -395 -227 -44 -26 -126 -73 -183 -106 -57 -32
-124 -72 -150 -87 -26 -15 -52 -30 -59 -33 -6 -3 -319 167 -694 378 -375 211
-695 391 -713 400 -17 9 -36 21 -41 26 -6 4 -18 13 -27 18 -16 9 65 58 766
460 78 44 186 106 241 139 55 32 114 66 130 75 17 10 73 42 125 72 52 30 111
65 130 76 38 24 81 22 111 -4z m1742 -1001 c136 -80 267 -153 276 -153 5 0 14
-7 21 -15 7 -8 20 -15 30 -15 10 0 23 -6 29 -14 7 -8 31 -24 54 -36 23 -12
105 -59 182 -104 77 -46 159 -94 182 -107 23 -13 107 -62 185 -108 79 -46 181
-106 228 -134 47 -27 100 -60 118 -74 l34 -25 -56 -34 c-30 -18 -74 -44 -98
-57 -55 -31 -73 -41 -306 -176 -107 -61 -196 -111 -198 -111 -2 0 -27 -15 -56
-33 -29 -19 -78 -48 -109 -64 -31 -17 -113 -65 -183 -107 -70 -43 -144 -85
-164 -94 -35 -16 -43 -21 -75 -47 -7 -5 -17 -11 -23 -12 -6 -1 -49 -24 -94
-52 -69 -41 -87 -48 -107 -40 -14 5 -136 73 -271 152 -307 178 -953 551 -1046
603 -38 21 -71 44 -73 50 -4 12 116 84 797 475 223 128 457 263 520 300 63 37
121 68 128 68 8 1 41 -15 75 -36z m-3482 1 c8 -8 18 -14 22 -14 3 0 104 -57
224 -127 454 -263 542 -314 670 -387 73 -42 136 -76 141 -76 4 0 40 -20 80
-45 40 -25 75 -45 78 -45 12 0 184 -103 184 -110 0 -4 -37 -29 -82 -55 -46
-26 -94 -55 -108 -65 -25 -17 -252 -149 -450 -263 -167 -95 -309 -176 -395
-227 -44 -26 -126 -73 -183 -106 -57 -32 -124 -72 -150 -87 -26 -15 -52 -30
-59 -33 -13 -6 -582 311 -1133 630 l-351 204 68 40 c37 22 185 107 328 189
240 138 385 222 730 421 72 41 155 90 185 107 30 17 71 41 90 53 38 24 81 22
111 -4z m1809 -1038 c69 -41 361 -210 650 -376 536 -310 620 -360 620 -371 0
-4 -69 -47 -152 -95 -84 -48 -189 -109 -233 -135 -44 -26 -96 -56 -115 -67
-19 -11 -96 -54 -170 -97 -269 -155 -323 -185 -331 -185 -5 0 -9 -4 -9 -10 0
-5 -5 -10 -11 -10 -6 0 -34 -15 -62 -34 -29 -19 -65 -40 -82 -47 -16 -7 -48
-25 -70 -39 -22 -15 -47 -30 -55 -34 -8 -4 -24 -12 -35 -19 -112 -67 -113 -67
-142 -56 -15 5 -335 188 -710 406 -541 314 -680 399 -672 409 6 8 93 61 193
118 99 57 267 153 371 214 733 423 871 502 880 502 6 0 66 -34 135 -74z m3440
23 c49 -29 90 -56 90 -60 0 -5 5 -9 11 -9 6 0 54 -26 107 -57 176 -103 353
-203 362 -203 4 0 13 -7 20 -15 7 -8 19 -15 27 -15 8 0 29 -11 46 -24 18 -13
57 -37 87 -53 30 -17 122 -69 203 -117 82 -47 152 -86 156 -86 3 0 19 -12 36
-27 26 -25 104 -74 178 -112 15 -8 25 -16 23 -19 -5 -4 -255 -150 -321 -187
-22 -12 -116 -66 -210 -120 -93 -54 -190 -109 -215 -123 -25 -14 -61 -35 -80
-47 -19 -12 -57 -34 -85 -50 -52 -29 -350 -199 -468 -267 l-68 -40 -107 62
c-59 35 -114 63 -122 64 -23 3 -50 17 -107 53 -29 18 -59 33 -67 33 -8 0 -16
4 -18 8 -3 8 -58 42 -198 122 -41 24 -105 63 -142 86 -37 24 -70 44 -72 44 -3
0 -29 14 -58 32 -67 39 -332 194 -378 220 -147 84 -190 111 -190 118 0 5 39
31 88 58 48 27 116 66 152 87 36 20 81 46 100 57 19 11 38 25 41 30 3 5 8 8
10 7 4 -3 99 48 199 106 183 107 216 127 230 135 8 5 103 59 210 120 107 62
198 116 201 122 3 5 9 9 13 9 9 -2 98 44 153 79 26 16 53 30 60 30 7 0 53 -23
103 -51z m-6304 -382 c634 -366 713 -413 697 -425 -26 -19 -334 -199 -623
-365 -167 -95 -309 -176 -395 -227 -44 -26 -126 -73 -183 -106 -57 -32 -124
-72 -150 -87 -26 -15 -52 -30 -59 -33 -6 -3 -319 167 -693 378 -375 211 -699
392 -719 403 -20 10 -44 27 -54 36 -20 18 -20 19 93 82 25 13 144 82 265 152
121 70 292 169 380 220 424 244 565 325 620 359 40 24 68 34 83 31 13 -3 345
-191 738 -418z m1672 -963 c378 -218 696 -404 708 -413 15 -12 18 -19 10 -27
-6 -6 -18 -8 -25 -6 -8 3 -11 0 -7 -7 4 -6 3 -11 -2 -11 -10 0 -191 -103 -269
-153 -24 -15 -45 -27 -48 -27 -6 0 -193 -107 -210 -120 -5 -4 -31 -19 -57 -34
-27 -14 -69 -38 -95 -52 -27 -15 -79 -45 -117 -67 -38 -23 -81 -48 -97 -56
-25 -14 -145 -84 -412 -240 -49 -28 -96 -51 -105 -51 -10 0 -123 61 -252 136
-129 75 -249 142 -267 150 -17 7 -35 18 -38 24 -4 6 -11 8 -16 5 -5 -3 -18 2
-28 12 -11 10 -63 43 -116 73 -53 30 -108 62 -123 71 -15 8 -56 31 -91 50 -36
19 -73 42 -83 52 -10 9 -23 17 -29 17 -6 0 -25 11 -42 24 -18 13 -54 36 -82
51 -117 64 -225 128 -235 140 -15 18 -96 -32 690 420 107 62 260 150 340 197
80 46 152 87 160 91 8 3 67 38 130 76 63 38 116 70 118 70 1 1 311 -177 690
-395z m2976 292 c100 -56 216 -123 260 -147 43 -24 99 -56 125 -72 25 -15 60
-34 76 -42 17 -9 44 -24 60 -34 17 -10 134 -78 260 -151 127 -72 235 -138 241
-146 6 -8 15 -14 20 -14 12 0 224 -123 224 -131 0 -7 -82 -58 -185 -114 -38
-21 -71 -42 -73 -47 -2 -4 -8 -8 -12 -8 -8 0 -225 -123 -565 -320 -88 -51
-180 -104 -205 -118 -25 -14 -85 -49 -133 -79 -49 -29 -90 -53 -92 -53 -5 0
-89 -49 -135 -79 -48 -31 -62 -29 -145 19 -44 26 -89 52 -100 58 -199 112
-1244 719 -1254 728 -14 13 8 31 117 91 72 40 147 84 295 170 34 20 91 53 127
73 61 34 271 156 315 183 11 7 23 17 27 22 4 6 8 7 8 3 0 -4 62 29 138 74 75
44 157 91 182 105 102 57 130 75 130 85 0 5 5 6 10 3 6 -3 10 -1 10 5 0 6 5 8
10 5 6 -3 10 -1 10 6 0 7 3 9 6 6 4 -3 16 0 28 8 11 8 25 15 30 15 5 0 91 -47
190 -104z m-1190 -1322 c566 -326 723 -421 713 -430 -6 -7 -36 -24 -64 -39
-29 -15 -53 -31 -53 -36 0 -5 -7 -9 -16 -9 -19 0 -104 -51 -104 -62 0 -5 -8
-8 -18 -8 -10 0 -28 -9 -40 -20 -12 -12 -22 -18 -22 -15 0 3 -13 -2 -30 -12
-16 -9 -30 -21 -30 -25 0 -4 -8 -8 -18 -8 -10 0 -27 -8 -38 -18 -10 -10 -37
-26 -59 -36 -22 -11 -55 -30 -72 -44 -18 -13 -33 -20 -33 -16 0 5 -4 5 -8 -1
-4 -5 -36 -25 -72 -44 -36 -19 -83 -46 -105 -61 -22 -15 -50 -30 -62 -34 -13
-4 -23 -12 -23 -17 0 -5 -6 -9 -14 -9 -8 0 -21 -6 -28 -13 -7 -7 -28 -19 -46
-26 -19 -8 -41 -21 -50 -30 -8 -9 -19 -17 -24 -17 -4 -1 -12 -2 -16 -3 -5 0
-17 -9 -28 -19 -10 -10 -23 -20 -29 -21 -32 -10 -54 -21 -66 -33 -8 -7 -44
-28 -80 -47 -35 -19 -66 -37 -69 -41 -3 -3 -32 -20 -66 -37 l-60 -32 -42 24
c-22 13 -42 21 -45 19 -2 -2 -12 5 -22 16 -10 11 -22 20 -27 20 -5 0 -26 11
-48 25 -22 14 -52 25 -67 25 -14 0 -34 6 -42 13 -16 14 -162 99 -316 185 -44
24 -88 51 -97 59 -9 8 -30 22 -46 31 -70 39 -136 78 -166 98 -18 12 -57 35
-87 51 -132 73 -177 98 -214 123 -22 14 -50 27 -61 27 -12 1 -41 15 -65 31
-24 16 -63 41 -86 56 -24 14 -43 31 -43 36 0 9 52 46 105 76 11 6 47 26 80 44
33 18 76 43 95 55 48 31 420 245 425 245 2 0 44 25 94 55 50 30 93 55 95 55 3
0 49 26 103 58 54 32 163 96 243 142 80 46 159 91 175 102 17 10 37 16 46 14
10 -2 344 -192 743 -422z"/>
</g>
</svg>
